<svg width="220" height="70" viewBox="0 0 220 70" fill="none" xmlns="http://www.w3.org/2000/svg">
<ellipse cx="28.6758" cy="12.0633" rx="4.56621" ry="4.52381" fill="#221980"/>
<path d="M33.242 34.6824C33.242 37.1808 31.1977 39.2062 28.6758 39.2062C26.154 39.2062 24.1096 37.1808 24.1096 34.6824C24.1096 32.1839 26.154 30.1586 28.6758 30.1586C31.1977 30.1586 33.242 32.1839 33.242 34.6824Z" fill="#221980"/>
<ellipse cx="16.4383" cy="22.5586" rx="4.56621" ry="4.52381" fill="#221980"/>
<ellipse cx="17.0776" cy="46.8062" rx="4.56621" ry="4.52381" fill="#221980"/>
<ellipse cx="40.8219" cy="45.9919" rx="4.56621" ry="4.52381" fill="#221980"/>
<ellipse cx="40.1827" cy="22.5586" rx="4.56621" ry="4.52381" fill="#221980"/>
<ellipse cx="28.8585" cy="57.6033" rx="4.56621" ry="4.52381" transform="rotate(-180 28.8585 57.6033)" fill="#221980"/>
<ellipse cx="52.7854" cy="34.6824" rx="4.56621" ry="4.52381" fill="#221980"/>
<ellipse cx="4.56624" cy="34.6824" rx="4.56621" ry="4.52381" transform="rotate(-180 4.56624 34.6824)" fill="#221980"/>
<path d="M4.54181 31.9151L13.966 22.5586L16.7897 25.3501L7.36548 34.7066L4.54181 31.9151Z" fill="#221980"/>
<path d="M7.27551 34.6824L16.7764 43.9625L13.9758 46.7767L4.4749 37.4966L7.27551 34.6824Z" fill="#221980"/>
<path d="M20.9741 48.1633L30.475 57.4434L27.6744 60.2577L18.1735 50.9776L20.9741 48.1633Z" fill="#221980"/>
<path d="M27.5289 38.1719L18.192 47.6138L15.3425 44.8481L24.6795 35.4062L27.5289 38.1719Z" fill="#221980"/>
<path d="M15.3425 21.1157L25.0646 12.0633L27.7965 14.9431L18.0744 23.9955L15.3425 21.1157Z" fill="#221980"/>
<path d="M88.4705 36.4761H77.5201V48H74.0791V21.9054H90.2448V24.7371H77.5201V33.6623H88.4705V36.4761ZM118.11 35.795C118.11 38.3519 117.68 40.5862 116.82 42.4979C115.959 44.3977 114.741 45.8493 113.164 46.853C111.586 47.8566 109.746 48.3584 107.644 48.3584C105.589 48.3584 103.766 47.8566 102.177 46.853C100.588 45.8374 99.3516 44.3977 98.4675 42.5338C97.5953 40.6579 97.1472 38.4893 97.1233 36.028V34.1462C97.1233 31.6371 97.5594 29.4208 98.4316 27.4971C99.3038 25.5735 100.534 24.1039 102.124 23.0883C103.725 22.0607 105.553 21.547 107.608 21.547C109.699 21.547 111.539 22.0548 113.128 23.0704C114.729 24.074 115.959 25.5376 116.82 27.4613C117.68 29.373 118.11 31.6013 118.11 34.1462V35.795ZM114.687 34.1104C114.687 31.0158 114.066 28.6441 112.823 26.9953C111.58 25.3345 109.842 24.5041 107.608 24.5041C105.433 24.5041 103.719 25.3345 102.464 26.9953C101.221 28.6441 100.582 30.9382 100.546 33.8774V35.795C100.546 38.794 101.174 41.1538 102.428 42.8743C103.695 44.5829 105.433 45.4371 107.644 45.4371C109.866 45.4371 111.586 44.6306 112.805 43.0177C114.024 41.3927 114.651 39.0688 114.687 36.046V34.1104ZM146.137 39.72C145.814 42.48 144.793 44.6127 143.072 46.1182C141.363 47.6117 139.087 48.3584 136.244 48.3584C133.161 48.3584 130.688 47.2532 128.824 45.0429C126.972 42.8325 126.046 39.8753 126.046 36.1714V33.6623C126.046 31.2369 126.476 29.1041 127.336 27.2641C128.209 25.4241 129.439 24.0143 131.028 23.0345C132.617 22.0428 134.457 21.547 136.548 21.547C139.32 21.547 141.543 22.3236 143.215 23.8768C144.888 25.4181 145.862 27.5569 146.137 30.293H142.678C142.379 28.214 141.728 26.7085 140.724 25.7766C139.733 24.8446 138.341 24.3787 136.548 24.3787C134.35 24.3787 132.623 25.1911 131.369 26.8161C130.126 28.441 129.505 30.753 129.505 33.7519V36.2789C129.505 39.1106 130.096 41.3628 131.279 43.0356C132.462 44.7083 134.117 45.5447 136.244 45.5447C138.155 45.5447 139.619 45.1145 140.635 44.2543C141.662 43.3821 142.343 41.8706 142.678 39.72H146.137ZM172.891 21.9054V39.6483C172.879 42.1096 172.102 44.1229 170.561 45.688C169.032 47.2532 166.953 48.1314 164.324 48.3226L163.41 48.3584C160.554 48.3584 158.278 47.5878 156.582 46.0465C154.885 44.5052 154.025 42.3844 154.001 39.6841V21.9054H157.406V39.5766C157.406 41.4644 157.926 42.934 158.965 43.9854C160.005 45.0249 161.486 45.5447 163.41 45.5447C165.358 45.5447 166.845 45.0249 167.873 43.9854C168.912 42.946 169.432 41.4823 169.432 39.5945V21.9054H172.891ZM189.68 36.3686C186.729 35.5202 184.578 34.4808 183.228 33.2501C181.89 32.0075 181.221 30.4782 181.221 28.6621C181.221 26.607 182.039 24.9104 183.676 23.5722C185.325 22.222 187.464 21.547 190.092 21.547C191.885 21.547 193.48 21.8935 194.878 22.5865C196.287 23.2794 197.375 24.2353 198.139 25.454C198.916 26.6727 199.304 28.0049 199.304 29.4506H195.845C195.845 27.8735 195.344 26.6369 194.34 25.7407C193.336 24.8327 191.92 24.3787 190.092 24.3787C188.396 24.3787 187.07 24.755 186.114 25.5078C185.17 26.2485 184.698 27.282 184.698 28.6083C184.698 29.6717 185.146 30.5737 186.042 31.3145C186.95 32.0434 188.485 32.7124 190.648 33.3218C192.823 33.9311 194.519 34.6062 195.738 35.347C196.969 36.0758 197.877 36.9301 198.462 37.9099C199.059 38.8896 199.358 40.0426 199.358 41.3688C199.358 43.4836 198.534 45.1803 196.885 46.4587C195.236 47.7252 193.032 48.3584 190.272 48.3584C188.479 48.3584 186.807 48.0179 185.253 47.3369C183.7 46.6439 182.499 45.7 181.651 44.5052C180.815 43.3104 180.397 41.9543 180.397 40.4369H183.856C183.856 42.014 184.435 43.2626 185.594 44.1826C186.765 45.0906 188.324 45.5447 190.272 45.5447C192.088 45.5447 193.48 45.1743 194.447 44.4335C195.415 43.6927 195.899 42.6831 195.899 41.4047C195.899 40.1262 195.451 39.1405 194.555 38.4475C193.659 37.7426 192.034 37.0496 189.68 36.3686Z" fill="#221980"/>
</svg>
