<svg width="500" height="373" viewBox="0 0 500 373" fill="none" xmlns="http://www.w3.org/2000/svg">
<path d="M500 327.4H0V327.65H500V327.4Z" fill="#EBEBEB"/>
<path d="M449.9 343.49H416.78V343.74H449.9V343.49Z" fill="#EBEBEB"/>
<path d="M331.22 346.21H322.53V346.46H331.22V346.21Z" fill="#EBEBEB"/>
<path d="M415.78 334.21H396.59V334.46H415.78V334.21Z" fill="#EBEBEB"/>
<path d="M95.65 335.89H52.46V336.14H95.65V335.89Z" fill="#EBEBEB"/>
<path d="M110.89 335.89H104.56V336.14H110.89V335.89Z" fill="#EBEBEB"/>
<path d="M225.15 340.11H131.47V340.36H225.15V340.11Z" fill="#EBEBEB"/>
<path d="M237 282.8H43.91C42.3973 282.797 40.9475 282.195 39.8789 281.124C38.8102 280.053 38.21 278.603 38.21 277.09V5.66C38.2232 4.15602 38.8292 2.71798 39.8964 1.65822C40.9637 0.598458 42.406 0.00257639 43.91 0H237C238.514 0 239.967 0.601588 241.038 1.67242C242.108 2.74325 242.71 4.19561 242.71 5.71V277.09C242.71 278.604 242.108 280.057 241.038 281.128C239.967 282.198 238.514 282.8 237 282.8ZM43.91 0.200001C42.4636 0.20265 41.0774 0.779065 40.0557 1.80273C39.0339 2.82639 38.46 4.21365 38.46 5.66V277.09C38.46 278.536 39.0339 279.924 40.0557 280.947C41.0774 281.971 42.4636 282.547 43.91 282.55H237C238.447 282.547 239.835 281.971 240.858 280.948C241.881 279.924 242.457 278.537 242.46 277.09V5.66C242.457 4.21273 241.881 2.82549 240.858 1.80212C239.835 0.77874 238.447 0.202644 237 0.200001H43.91Z" fill="#EBEBEB"/>
<path d="M453.31 282.8H260.21C258.696 282.797 257.246 282.195 256.175 281.125C255.105 280.054 254.503 278.604 254.5 277.09V5.66C254.516 4.15511 255.124 2.71708 256.193 1.65759C257.262 0.598109 258.705 0.00254829 260.21 0H453.31C454.812 0.0052045 456.252 0.602249 457.317 1.66173C458.382 2.72121 458.987 4.15775 459 5.66V277.09C459 278.601 458.401 280.05 457.335 281.121C456.268 282.191 454.821 282.795 453.31 282.8ZM260.21 0.200001C258.763 0.202644 257.375 0.77874 256.352 1.80212C255.329 2.82549 254.753 4.21273 254.75 5.66V277.09C254.753 278.537 255.329 279.924 256.352 280.948C257.375 281.971 258.763 282.547 260.21 282.55H453.31C454.757 282.547 456.145 281.971 457.168 280.948C458.191 279.924 458.767 278.537 458.77 277.09V5.66C458.767 4.21273 458.191 2.82549 457.168 1.80212C456.145 0.77874 454.757 0.202644 453.31 0.200001H260.21Z" fill="#EBEBEB"/>
<path d="M338.258 26.2027L306.575 31.0396L343.386 272.166L375.069 267.329L338.258 26.2027Z" fill="#F5F5F5"/>
<path d="M316.482 35.3877L307.446 36.7671L307.828 39.2681L316.864 37.8887L316.482 35.3877Z" fill="#EBEBEB"/>
<path d="M317.592 42.6273L308.556 44.0067L308.938 46.5077L317.973 45.1283L317.592 42.6273Z" fill="#EBEBEB"/>
<path d="M318.693 49.8783L309.658 51.2576L310.041 53.7685L319.077 52.3892L318.693 49.8783Z" fill="#EBEBEB"/>
<path d="M319.805 57.1277L310.769 58.5071L311.151 61.0081L320.186 59.6287L319.805 57.1277Z" fill="#EBEBEB"/>
<path d="M320.916 64.3772L311.881 65.7565L312.263 68.2576L321.298 66.8782L320.916 64.3772Z" fill="#EBEBEB"/>
<path d="M322.017 71.6266L312.982 73.006L313.366 75.5169L322.401 74.1375L322.017 71.6266Z" fill="#EBEBEB"/>
<path d="M323.119 78.8775L314.084 80.2569L314.466 82.7579L323.501 81.3786L323.119 78.8775Z" fill="#EBEBEB"/>
<path d="M324.23 86.127L315.195 87.5063L315.577 90.0074L324.612 88.628L324.23 86.127Z" fill="#EBEBEB"/>
<path d="M325.34 93.3666L316.305 94.7459L316.688 97.2568L325.724 95.8775L325.34 93.3666Z" fill="#EBEBEB"/>
<path d="M326.453 100.626L317.418 102.005L317.8 104.506L326.835 103.127L326.453 100.626Z" fill="#EBEBEB"/>
<path d="M327.545 107.877L318.51 109.256L318.891 111.757L327.927 110.378L327.545 107.877Z" fill="#EBEBEB"/>
<path d="M328.655 115.116L319.619 116.496L320.003 119.007L329.038 117.627L328.655 115.116Z" fill="#EBEBEB"/>
<path d="M329.768 122.376L320.732 123.755L321.114 126.256L330.15 124.877L329.768 122.376Z" fill="#EBEBEB"/>
<path d="M330.868 129.617L321.832 130.996L322.214 133.497L331.25 132.118L330.868 129.617Z" fill="#EBEBEB"/>
<path d="M331.979 136.866L322.944 138.246L323.327 140.757L332.362 139.377L331.979 136.866Z" fill="#EBEBEB"/>
<path d="M333.082 144.126L324.047 145.505L324.429 148.006L333.464 146.627L333.082 144.126Z" fill="#EBEBEB"/>
<path d="M334.192 151.365L325.157 152.745L325.538 155.246L334.574 153.866L334.192 151.365Z" fill="#EBEBEB"/>
<path d="M335.294 158.616L326.258 159.995L326.642 162.506L335.677 161.127L335.294 158.616Z" fill="#EBEBEB"/>
<path d="M336.405 165.866L327.37 167.245L327.751 169.746L336.787 168.367L336.405 165.866Z" fill="#EBEBEB"/>
<path d="M337.798 173.757L328.749 175.128L329.129 177.633L338.177 176.262L337.798 173.757Z" fill="#EBEBEB"/>
<path d="M338.628 180.364L329.592 181.744L329.976 184.255L339.011 182.875L338.628 180.364Z" fill="#EBEBEB"/>
<path d="M339.719 187.615L330.684 188.995L331.066 191.496L340.101 190.116L339.719 187.615Z" fill="#EBEBEB"/>
<path d="M340.855 194.819L331.82 196.2L332.202 198.701L341.237 197.32L340.855 194.819Z" fill="#EBEBEB"/>
<path d="M341.941 202.114L332.905 203.494L333.289 206.005L342.324 204.625L341.941 202.114Z" fill="#EBEBEB"/>
<path d="M383.96 64.89H371.69V227.28H383.96V64.89Z" fill="#F0F0F0"/>
<path d="M382.96 46.49H372.69L371.69 64.89H383.96L382.96 46.49Z" fill="#F5F5F5"/>
<path d="M446.553 83.2821L435.85 81.9148L415.044 244.781L425.747 246.148L446.553 83.2821Z" fill="#E6E6E6"/>
<path d="M452 70L448.84 66.3L449.52 44.37L442.79 43.54L434.3 81.54L434.87 89.73L445.57 91.09L447.09 86.79L444.77 115.64L446.14 115.82C450.53 98.09 452 70 452 70Z" fill="#EBEBEB"/>
<path d="M428.17 121.17L394.62 122.94L395.86 89.23L423.41 87.78L428.17 121.17Z" fill="#E0E0E0"/>
<path d="M428.17 121.17L394.62 122.94L402.41 214.05L429.97 212.6L428.17 121.17Z" fill="#EBEBEB"/>
<path d="M440.84 167.52H316.39L326.39 326.32H430.84L440.84 167.52Z" fill="#E6E6E6"/>
<path d="M442.62 161.52H314.61V177.71H442.62V161.52Z" fill="#E0E0E0"/>
<path d="M281.31 14.8H50.79V192.15H281.31V14.8Z" fill="#F0F0F0"/>
<path d="M127.458 35.3506L77.3618 39.4077L81.4188 89.5036L131.515 85.4466L127.458 35.3506Z" fill="#FAFAFA"/>
<path d="M222.168 43.1001L171.957 40.864L169.721 91.0742L219.932 93.3104L222.168 43.1001Z" fill="#FAFAFA"/>
<path d="M167.31 102.251L117.1 100.015L114.864 150.225L165.074 152.461L167.31 102.251Z" fill="#FAFAFA"/>
<path d="M106.28 40C106.28 40.3683 106.171 40.7283 105.966 41.0344C105.761 41.3405 105.47 41.5789 105.129 41.7193C104.789 41.8598 104.415 41.8961 104.053 41.8235C103.692 41.7509 103.361 41.5728 103.101 41.3116C102.842 41.0505 102.665 40.7181 102.595 40.3567C102.524 39.9952 102.562 39.6209 102.704 39.2812C102.847 38.9415 103.087 38.6517 103.394 38.4486C103.701 38.2454 104.062 38.138 104.43 38.14C104.674 38.14 104.915 38.1882 105.14 38.2818C105.365 38.3754 105.57 38.5125 105.742 38.6854C105.914 38.8582 106.05 39.0633 106.142 39.2889C106.234 39.5146 106.281 39.7562 106.28 40Z" fill="#E6E6E6"/>
<path d="M198.81 44.55C198.812 44.9204 198.703 45.2829 198.498 45.5911C198.292 45.8993 197.999 46.1391 197.657 46.2799C197.314 46.4206 196.937 46.4558 196.574 46.381C196.212 46.3063 195.88 46.1249 195.621 45.8601C195.361 45.5953 195.187 45.2593 195.121 44.895C195.054 44.5306 195.097 44.1547 195.245 43.8152C195.394 43.4757 195.64 43.1883 195.952 42.9896C196.265 42.7909 196.63 42.6901 197 42.7C197.484 42.7105 197.944 42.91 198.282 43.2558C198.621 43.6016 198.81 44.0662 198.81 44.55Z" fill="#E6E6E6"/>
<path d="M145.32 105.2C145.322 105.568 145.215 105.929 145.011 106.236C144.808 106.543 144.518 106.783 144.179 106.926C143.839 107.068 143.465 107.106 143.103 107.035C142.742 106.965 142.409 106.788 142.148 106.529C141.887 106.269 141.709 105.938 141.637 105.577C141.564 105.215 141.6 104.841 141.741 104.501C141.881 104.16 142.12 103.869 142.426 103.664C142.732 103.459 143.092 103.35 143.46 103.35C143.952 103.35 144.423 103.545 144.772 103.891C145.12 104.238 145.317 104.708 145.32 105.2Z" fill="#E6E6E6"/>
<path d="M98.58 55.85C97.836 55.8834 97.0935 55.756 96.4033 55.4764C95.713 55.1968 95.0911 54.7717 94.58 54.23C94.4425 54.0789 94.3155 53.9185 94.2 53.75C94.0601 53.532 93.8843 53.3392 93.68 53.18C93.2621 53.0804 92.8243 53.1047 92.42 53.25L85.22 54.87L84.78 52.87L91.98 51.25C92.8501 50.9726 93.7912 51.0188 94.63 51.38C95.1011 51.6667 95.5011 52.0565 95.8 52.52C95.89 52.64 95.98 52.76 96.08 52.87C96.5481 53.2892 97.113 53.5854 97.7239 53.732C98.3349 53.8786 98.9727 53.8711 99.58 53.71C100.545 53.496 101.486 53.1879 102.39 52.79C102.92 52.58 103.39 52.37 103.98 52.18C107.26 51.06 110.69 51.02 113.98 50.97L120.87 50.88V52.88L113.98 52.97C110.805 52.8439 107.629 53.2185 104.57 54.08C104.06 54.25 103.57 54.45 103.07 54.64C102.045 55.0758 100.98 55.4107 99.89 55.64C99.4604 55.7488 99.022 55.8191 98.58 55.85Z" fill="#F0F0F0"/>
<path d="M89 65.61L88.9 63.61L102.68 62.96C103.525 62.9703 104.366 62.8419 105.17 62.58C105.517 62.4306 105.852 62.2534 106.17 62.05C106.39 61.92 106.61 61.79 106.84 61.67C108.831 60.6448 111.137 60.4159 113.29 61.03L112.74 62.95C111.071 62.4627 109.279 62.642 107.74 63.45C107.54 63.55 107.34 63.67 107.15 63.78C106.739 64.0298 106.312 64.2503 105.87 64.44C104.86 64.7866 103.798 64.9624 102.73 64.96L89 65.61Z" fill="#F0F0F0"/>
<path d="M192 54.9C187.79 54.9 183.59 54.55 179.46 54.2L179.63 52.2C187.22 52.84 195.07 53.49 202.63 51.89L203.39 51.72C204.741 51.3565 206.132 51.165 207.53 51.15C208.479 51.1336 209.419 51.3405 210.274 51.7539C211.128 52.1673 211.874 52.7757 212.45 53.53L210.8 54.65C210.401 54.1593 209.894 53.7682 209.317 53.5078C208.741 53.2474 208.112 53.1249 207.48 53.15C206.247 53.1799 205.022 53.3544 203.83 53.67L203.05 53.84C199.414 54.5824 195.71 54.9377 192 54.9Z" fill="#F0F0F0"/>
<path d="M211.51 65.48C206.645 63.105 201.22 62.1155 195.83 62.62L195.63 60.62C201.392 60.0559 207.196 61.1122 212.39 63.67L211.51 65.48Z" fill="#F0F0F0"/>
<path d="M197.37 70.14C191.856 70.1406 186.351 69.6891 180.91 68.79L181.24 66.79C188.871 68.0506 196.625 68.4097 204.34 67.86L204.48 69.86C202.11 70.05 199.74 70.14 197.37 70.14Z" fill="#F0F0F0"/>
<path d="M144.8 117.5C140.982 117.65 137.166 117.142 133.52 116C132.71 115.71 131.91 115.37 131.14 115C129.441 114.122 127.586 113.589 125.68 113.43V111.43C127.853 111.581 129.973 112.173 131.91 113.17C132.65 113.49 133.42 113.82 134.17 114.09C138.24 115.54 142.71 115.5 147.02 115.45C148.028 115.483 149.037 115.386 150.02 115.16C150.525 114.998 151.019 114.804 151.5 114.58C151.84 114.43 152.18 114.28 152.5 114.15C156.07 112.78 160.09 113.34 163.32 113.79L163.04 115.79C159.89 115.35 156.31 114.85 153.21 116.04C152.9 116.15 152.6 116.29 152.29 116.43C151.725 116.691 151.144 116.915 150.55 117.1C149.385 117.381 148.188 117.505 146.99 117.47L144.8 117.5Z" fill="#F0F0F0"/>
<path d="M154.57 126.12H132.81V128.12H154.57V126.12Z" fill="#F0F0F0"/>
<path d="M130.07 140.16L130.01 138.16C138.42 137.9 147.01 137.86 155.38 138.03V140.03C147 139.86 138.45 139.9 130.07 140.16Z" fill="#F0F0F0"/>
<path d="M250 372.56C357.082 372.56 443.89 367.492 443.89 361.24C443.89 354.988 357.082 349.92 250 349.92C142.918 349.92 56.11 354.988 56.11 361.24C56.11 367.492 142.918 372.56 250 372.56Z" fill="#F5F5F5"/>
<path d="M207.85 362.24C207.58 362.24 179.92 362.14 152.36 360.87C95.88 358.26 94.8 353.33 94.36 351.48C94.2547 351.013 94.2474 350.529 94.3386 350.059C94.4299 349.59 94.6176 349.144 94.89 348.75C97.34 345.11 106.89 343.42 117.96 341.47C128.25 339.65 139.96 337.59 142.14 333.93C142.317 333.646 142.428 333.327 142.465 332.994C142.501 332.662 142.462 332.325 142.35 332.01C141.11 328.08 129.88 325.36 116.87 322.21C94.8 316.86 67.34 310.21 58.96 292.37C45.5 263.72 59.88 216.26 60.5 214.25L62.41 214.84C62.26 215.33 47.64 263.58 60.77 291.52C68.77 308.52 96.83 315.29 117.34 320.26C132.05 323.83 142.68 326.4 144.26 331.41C144.456 331.997 144.521 332.62 144.451 333.236C144.38 333.851 144.175 334.443 143.85 334.97C141.15 339.4 130.06 341.36 118.31 343.43C109.04 345.07 98.52 346.93 96.56 349.87C96.4361 350.037 96.3496 350.229 96.3065 350.433C96.2633 350.636 96.2645 350.847 96.31 351.05C96.58 352.29 101.43 356.52 152.41 358.87C179.92 360.14 207.54 360.24 207.82 360.24L207.85 362.24Z" fill="black"/>
<path d="M205.28 100.71H198.75V108.23H205.28V100.71Z" fill="black"/>
<path opacity="0.2" d="M205.28 100.71H198.75V108.23H205.28V100.71Z" fill="white"/>
<path d="M188.62 114.57L189.93 110.09C190.163 109.297 190.646 108.601 191.308 108.105C191.969 107.609 192.773 107.341 193.6 107.34H213C213.687 107.342 214.36 107.528 214.95 107.88C215.539 108.232 216.023 108.736 216.35 109.34L219.22 114.58H187.77" fill="black"/>
<path opacity="0.4" d="M188.62 114.57L189.93 110.09C190.163 109.297 190.646 108.601 191.308 108.105C191.969 107.609 192.773 107.341 193.6 107.34H213C213.687 107.342 214.36 107.528 214.95 107.88C215.539 108.232 216.023 108.736 216.35 109.34L219.22 114.58H187.77" fill="white"/>
<path opacity="0.2" d="M196.08 114.57H219.22L216.35 109.33C216.023 108.726 215.539 108.222 214.95 107.87C214.36 107.518 213.687 107.332 213 107.33H198.15C197.6 107.333 197.074 107.553 196.686 107.943C196.298 108.333 196.08 108.86 196.08 109.41V114.57Z" fill="white"/>
<path d="M210.958 101.673C215.676 96.9555 215.676 89.3069 210.958 84.5893C206.241 79.8718 198.592 79.8718 193.874 84.5893C189.157 89.3069 189.157 96.9555 193.874 101.673C198.592 106.391 206.241 106.391 210.958 101.673Z" fill="black"/>
<path opacity="0.3" d="M210.958 101.673C215.676 96.9555 215.676 89.3069 210.958 84.5893C206.241 79.8718 198.592 79.8718 193.874 84.5893C189.157 89.3069 189.157 96.9555 193.874 101.673C198.592 106.391 206.241 106.391 210.958 101.673Z" fill="white"/>
<path d="M214.49 96C214.49 97.3078 214.102 98.5862 213.375 99.6734C212.649 100.761 211.616 101.608 210.407 102.108C209.199 102.608 207.869 102.738 206.587 102.482C205.304 102.226 204.127 101.596 203.203 100.67C202.278 99.745 201.65 98.5663 201.396 97.2834C201.142 96.0006 201.274 94.6712 201.776 93.4636C202.278 92.2559 203.127 91.2243 204.215 90.4991C205.303 89.774 206.582 89.388 207.89 89.39C209.641 89.3927 211.32 90.0903 212.558 91.3296C213.795 92.5689 214.49 94.2487 214.49 96Z" fill="black"/>
<path opacity="0.2" d="M214.49 96C214.49 97.3078 214.102 98.5862 213.375 99.6734C212.649 100.761 211.616 101.608 210.407 102.108C209.199 102.608 207.869 102.738 206.587 102.482C205.304 102.226 204.127 101.596 203.203 100.67C202.278 99.745 201.65 98.5663 201.396 97.2834C201.142 96.0006 201.274 94.6712 201.776 93.4636C202.278 92.2559 203.127 91.2243 204.215 90.4991C205.303 89.774 206.582 89.388 207.89 89.39C209.641 89.3927 211.32 90.0903 212.558 91.3296C213.795 92.5689 214.49 94.2487 214.49 96Z" fill="white"/>
<path d="M213 96.48C213 97.3388 212.745 98.1783 212.268 98.8922C211.791 99.6061 211.112 100.162 210.319 100.491C209.525 100.819 208.652 100.904 207.81 100.736C206.967 100.568 206.194 100.153 205.588 99.5453C204.981 98.9373 204.569 98.1631 204.402 97.3205C204.236 96.478 204.323 95.6051 204.653 94.8122C204.983 94.0194 205.541 93.3422 206.256 92.8666C206.971 92.3909 207.811 92.138 208.67 92.14C209.239 92.14 209.803 92.2523 210.329 92.4705C210.855 92.6888 211.333 93.0086 211.735 93.4118C212.138 93.8149 212.456 94.2934 212.673 94.8199C212.89 95.3464 213.001 95.9105 213 96.48Z" fill="black"/>
<path opacity="0.2" d="M201.28 88.48C201.282 88.6588 201.231 88.8342 201.132 88.9837C201.034 89.1333 200.894 89.2502 200.729 89.3195C200.564 89.3889 200.382 89.4075 200.207 89.3731C200.031 89.3387 199.87 89.2528 199.744 89.1263C199.617 88.9999 199.531 88.8386 199.497 88.6631C199.462 88.4876 199.481 88.3058 199.55 88.1409C199.62 87.9761 199.737 87.8356 199.886 87.7375C200.036 87.6394 200.211 87.588 200.39 87.59C200.626 87.59 200.852 87.6838 201.019 87.8507C201.186 88.0176 201.28 88.2439 201.28 88.48Z" fill="black"/>
<path d="M118.72 109.3C118.72 109.3 74.44 106.25 71 191.3L61.59 190.72C61.59 190.72 58.91 138.11 81.22 111.91C83.5177 109.241 86.3954 107.132 89.6331 105.746C92.8707 104.359 96.3825 103.731 99.9 103.91C107.88 104.26 118.07 105.48 118.72 109.3Z" fill="black"/>
<path d="M75.3543 218.563C86.0851 213.518 90.6943 200.729 85.6494 189.998C80.6044 179.268 67.8157 174.658 57.0849 179.703C46.3541 184.748 41.7448 197.537 46.7897 208.268C51.8347 218.999 64.6235 223.608 75.3543 218.563Z" fill="black"/>
<path opacity="0.1" d="M75.3543 218.563C86.0851 213.518 90.6943 200.729 85.6494 189.998C80.6044 179.268 67.8157 174.658 57.0849 179.703C46.3541 184.748 41.7448 197.537 46.7897 208.268C51.8347 218.999 64.6235 223.608 75.3543 218.563Z" fill="white"/>
<path d="M55.37 194.75C54.5974 196.897 54.4788 199.226 55.0293 201.441C55.5798 203.655 56.7746 205.657 58.4628 207.193C60.1509 208.729 62.2565 209.73 64.5133 210.069C66.7701 210.408 69.0769 210.07 71.1419 209.099C73.2069 208.127 74.9374 206.565 76.1147 204.61C77.2919 202.655 77.863 200.394 77.7558 198.115C77.6486 195.835 76.8678 193.638 75.5122 191.802C74.1566 189.966 72.2871 188.574 70.14 187.8C68.714 187.285 67.2003 187.056 65.6857 187.127C64.1711 187.197 62.6854 187.566 61.3134 188.211C59.9415 188.857 58.7103 189.767 57.6905 190.889C56.6706 192.011 55.8821 193.323 55.37 194.75Z" fill="black"/>
<path opacity="0.1" d="M67.5393 205.693C71.4128 203.872 73.0766 199.255 71.2556 195.382C69.4345 191.508 64.8181 189.845 60.9447 191.666C57.0712 193.487 55.4074 198.103 57.2284 201.976C59.0495 205.85 63.6659 207.514 67.5393 205.693Z" fill="white"/>
<path d="M257.09 359V362.85C257.09 362.964 257.067 363.076 257.024 363.181C256.98 363.286 256.915 363.382 256.835 363.462C256.754 363.542 256.658 363.605 256.552 363.647C256.447 363.69 256.334 363.711 256.22 363.71H147.51C146.582 363.712 145.669 363.486 144.849 363.052C144.029 362.618 143.329 361.989 142.809 361.22C142.29 360.452 141.967 359.567 141.869 358.645C141.772 357.722 141.903 356.79 142.25 355.93L176.7 270.61L232.37 270.99L230.47 282.06L218.19 353.71C218.097 354.253 218.123 354.811 218.268 355.343C218.412 355.875 218.671 356.369 219.026 356.791C219.382 357.213 219.824 357.552 220.324 357.785C220.824 358.018 221.369 358.139 221.92 358.14H256.22C256.334 358.139 256.447 358.16 256.552 358.203C256.658 358.245 256.754 358.308 256.835 358.388C256.915 358.468 256.98 358.564 257.024 358.669C257.067 358.774 257.09 358.886 257.09 359Z" fill="#22223B"/>
<path opacity="0.6" d="M257.09 359V362.85C257.09 362.964 257.067 363.076 257.024 363.181C256.98 363.286 256.915 363.382 256.835 363.462C256.754 363.542 256.658 363.605 256.552 363.647C256.447 363.69 256.334 363.711 256.22 363.71H147.51C146.582 363.712 145.669 363.486 144.849 363.052C144.029 362.618 143.329 361.989 142.809 361.22C142.29 360.452 141.967 359.567 141.869 358.645C141.772 357.722 141.903 356.79 142.25 355.93L163.61 303.04L176.7 270.61L232.37 270.99L230.47 282.06L225.13 313.22L218.19 353.71C218.097 354.253 218.123 354.811 218.268 355.343C218.412 355.875 218.671 356.369 219.026 356.791C219.382 357.213 219.824 357.552 220.324 357.785C220.824 358.018 221.369 358.139 221.92 358.14H256.22C256.334 358.139 256.447 358.16 256.552 358.203C256.658 358.245 256.754 358.308 256.835 358.388C256.915 358.468 256.98 358.564 257.024 358.669C257.067 358.774 257.09 358.886 257.09 359Z" fill="white"/>
<path opacity="0.2" d="M221.92 358.17H151.19C150.782 358.17 150.381 358.069 150.021 357.877C149.661 357.684 149.355 357.406 149.128 357.067C148.902 356.728 148.762 356.338 148.723 355.932C148.683 355.526 148.744 355.117 148.9 354.74L179.1 282.09H230.47L218.19 353.74C218.097 354.283 218.123 354.841 218.268 355.373C218.412 355.905 218.671 356.399 219.026 356.821C219.382 357.243 219.824 357.582 220.324 357.815C220.824 358.048 221.369 358.169 221.92 358.17Z" fill="black"/>
<path opacity="0.1" d="M232.37 271.02L230.47 282.09L225.13 313.25L163.61 303.07L176.7 270.64L232.37 271.02Z" fill="black"/>
<path d="M340.62 112H82.89C82.0237 112 81.166 112.171 80.3658 112.503C79.5656 112.834 78.8387 113.321 78.2266 113.934C77.6145 114.547 77.1293 115.274 76.7988 116.075C76.4682 116.876 76.2987 117.734 76.3 118.6V293.05C76.3 294.798 76.9943 296.474 78.2302 297.71C79.466 298.946 81.1422 299.64 82.89 299.64H340.62C341.486 299.641 342.344 299.472 343.145 299.141C343.946 298.811 344.673 298.325 345.286 297.713C345.899 297.101 346.386 296.374 346.717 295.574C347.049 294.774 347.22 293.916 347.22 293.05V118.57C347.215 116.824 346.517 115.151 345.279 113.92C344.042 112.688 342.366 111.997 340.62 112Z" fill="#22223B"/>
<path opacity="0.7" d="M340.62 112H82.89C82.0237 112 81.166 112.171 80.3658 112.503C79.5656 112.834 78.8387 113.321 78.2266 113.934C77.6145 114.547 77.1293 115.274 76.7988 116.075C76.4682 116.876 76.2987 117.734 76.3 118.6V293.05C76.3 294.798 76.9943 296.474 78.2302 297.71C79.466 298.946 81.1422 299.64 82.89 299.64H340.62C341.486 299.641 342.344 299.472 343.145 299.141C343.946 298.811 344.673 298.325 345.286 297.713C345.899 297.101 346.386 296.374 346.717 295.574C347.049 294.774 347.22 293.916 347.22 293.05V118.57C347.215 116.824 346.517 115.151 345.279 113.92C344.042 112.688 342.366 111.997 340.62 112Z" fill="white"/>
<path opacity="0.2" d="M88.35 299.64H82.89C81.1422 299.64 79.466 298.946 78.2302 297.71C76.9943 296.474 76.3 294.798 76.3 293.05V118.57C76.2987 117.704 76.4682 116.846 76.7988 116.045C77.1293 115.244 77.6145 114.517 78.2266 113.904C78.8387 113.291 79.5656 112.804 80.3658 112.473C81.166 112.141 82.0237 111.97 82.89 111.97H88.35C87.4837 111.97 86.626 112.141 85.8258 112.473C85.0256 112.804 84.2987 113.291 83.6866 113.904C83.0746 114.517 82.5893 115.244 82.2588 116.045C81.9282 116.846 81.7587 117.704 81.76 118.57V293.05C81.76 294.798 82.4543 296.474 83.6902 297.71C84.926 298.946 86.6022 299.64 88.35 299.64Z" fill="black"/>
<path d="M341.28 118.43H87.71V286.68H341.28V118.43Z" fill="#22223B"/>
<path opacity="0.1" d="M314.85 118.43C279.79 153.55 189.74 231.73 87.71 226V118.43H314.85Z" fill="white"/>
<path opacity="0.1" d="M341.28 183V286.68H188.62C194.47 265.74 206.17 237.06 228.88 216.56C269.72 179.69 317.11 179.8 341.28 183Z" fill="white"/>
<path opacity="0.8" d="M239.18 217.18H189.81C188.573 217.18 187.57 218.183 187.57 219.42V219.84C187.57 221.077 188.573 222.08 189.81 222.08H239.18C240.417 222.08 241.42 221.077 241.42 219.84V219.42C241.42 218.183 240.417 217.18 239.18 217.18Z" fill="white"/>
<path opacity="0.4" d="M246.24 228.08H182.75C181.822 228.08 181.07 228.832 181.07 229.76V235.54C181.07 236.468 181.822 237.22 182.75 237.22H246.24C247.168 237.22 247.92 236.468 247.92 235.54V229.76C247.92 228.832 247.168 228.08 246.24 228.08Z" fill="black"/>
<path d="M246.23 229.17H240.65C240.324 229.17 240.06 229.434 240.06 229.76V235.53C240.06 235.856 240.324 236.12 240.65 236.12H246.23C246.556 236.12 246.82 235.856 246.82 235.53V229.76C246.82 229.434 246.556 229.17 246.23 229.17Z" fill="#22223B"/>
<path opacity="0.4" d="M243 181.41C243.002 187.048 241.332 192.559 238.201 197.248C235.07 201.936 230.619 205.59 225.411 207.749C220.203 209.907 214.472 210.472 208.942 209.373C203.413 208.274 198.334 205.559 194.347 201.573C190.361 197.586 187.647 192.507 186.547 186.978C185.448 181.448 186.013 175.717 188.171 170.509C190.33 165.301 193.984 160.85 198.672 157.719C203.361 154.588 208.872 152.918 214.51 152.92C218.256 152.903 221.969 153.628 225.433 155.054C228.897 156.479 232.045 158.577 234.694 161.226C237.343 163.875 239.441 167.023 240.866 170.487C242.292 173.951 243.017 177.664 243 181.41Z" fill="black"/>
<path opacity="0.8" d="M236 200.07C233.326 203.161 230.019 205.64 226.302 207.34C222.586 209.039 218.547 209.918 214.46 209.918C210.373 209.918 206.334 209.039 202.618 207.34C198.901 205.64 195.594 203.161 192.92 200.07C193.957 196.372 195.927 193.002 198.641 190.284C201.356 187.566 204.723 185.592 208.42 184.55C206.443 183.249 204.938 181.346 204.128 179.122C203.319 176.898 203.248 174.472 203.927 172.205C204.606 169.938 205.998 167.95 207.896 166.536C209.795 165.123 212.098 164.36 214.465 164.36C216.832 164.36 219.135 165.123 221.034 166.536C222.932 167.95 224.324 169.938 225.003 172.205C225.682 174.472 225.611 176.898 224.802 179.122C223.992 181.346 222.487 183.249 220.51 184.55C224.206 185.592 227.571 187.567 230.284 190.285C232.996 193.003 234.965 196.372 236 200.07Z" fill="white"/>
<path opacity="0.4" d="M311.45 273.94H305.83V279.56H311.45V273.94Z" fill="black"/>
<path opacity="0.4" d="M320.94 273.94H318.2C317.405 273.94 316.76 274.585 316.76 275.38V278.12C316.76 278.915 317.405 279.56 318.2 279.56H320.94C321.735 279.56 322.38 278.915 322.38 278.12V275.38C322.38 274.585 321.735 273.94 320.94 273.94Z" fill="black"/>
<path opacity="0.4" d="M330.73 273.94H330.25C328.831 273.94 327.68 275.091 327.68 276.51V276.99C327.68 278.409 328.831 279.56 330.25 279.56H330.73C332.149 279.56 333.3 278.409 333.3 276.99V276.51C333.3 275.091 332.149 273.94 330.73 273.94Z" fill="black"/>
<g opacity="0.1">
<path opacity="0.1" d="M125.29 118.43L87.71 258.85V118.43H125.29Z" fill="white"/>
<path opacity="0.1" d="M167.7 118.43L122.67 286.68H91.65L136.67 118.43H167.7Z" fill="white"/>
<path opacity="0.1" d="M212.8 118.43L167.77 286.68H153.74L198.77 118.43H212.8Z" fill="white"/>
<path opacity="0.1" d="M254.33 118.43L209.3 286.68H204.28L249.31 118.43H254.33Z" fill="white"/>
</g>
<path d="M103.8 227.27C115.658 227.27 125.27 217.658 125.27 205.8C125.27 193.942 115.658 184.33 103.8 184.33C91.9424 184.33 82.33 193.942 82.33 205.8C82.33 217.658 91.9424 227.27 103.8 227.27Z" fill="black"/>
<path d="M117.882 219.248C125.232 211.898 125.232 199.982 117.882 192.633C110.533 185.283 98.6165 185.283 91.2669 192.633C83.9172 199.982 83.9172 211.898 91.2669 219.248C98.6165 226.598 110.533 226.598 117.882 219.248Z" fill="black"/>
<path opacity="0.2" d="M117.882 219.248C125.232 211.898 125.232 199.982 117.882 192.633C110.533 185.283 98.6165 185.283 91.2669 192.633C83.9172 199.982 83.9172 211.898 91.2669 219.248C98.6165 226.598 110.533 226.598 117.882 219.248Z" fill="white"/>
<path d="M100.52 106.81C100.52 106.81 123.32 131.9 106.03 196.48L115.03 199.13C115.03 199.13 140.55 138.22 117.45 107.59C117.5 107.59 103.68 101.21 100.52 106.81Z" fill="black"/>
<path opacity="0.1" d="M100.52 106.81C100.52 106.81 123.32 131.9 106.03 196.48L115.03 199.13C115.03 199.13 140.55 138.22 117.45 107.59C117.5 107.59 103.68 101.21 100.52 106.81Z" fill="white"/>
<path d="M118.146 209.178C119.61 202.975 115.768 196.76 109.565 195.296C103.362 193.832 97.1471 197.673 95.6831 203.876C94.2191 210.079 98.0607 216.295 104.264 217.759C110.467 219.223 116.682 215.381 118.146 209.178Z" fill="black"/>
<path opacity="0.1" d="M118.146 209.178C119.61 202.975 115.768 196.76 109.565 195.296C103.362 193.832 97.1471 197.673 95.6831 203.876C94.2191 210.079 98.0607 216.295 104.264 217.759C110.467 219.223 116.682 215.381 118.146 209.178Z" fill="white"/>
<path d="M111.35 215.394C116.244 213.367 118.567 207.757 116.54 202.864C114.514 197.971 108.904 195.647 104.01 197.674C99.1172 199.701 96.7935 205.311 98.8204 210.204C100.847 215.097 106.457 217.421 111.35 215.394Z" fill="black"/>
<path opacity="0.2" d="M111.35 215.394C116.244 213.367 118.567 207.757 116.54 202.864C114.514 197.971 108.904 195.647 104.01 197.674C99.1172 199.701 96.7935 205.311 98.8204 210.204C100.847 215.097 106.457 217.421 111.35 215.394Z" fill="white"/>
<path d="M247.19 175.29L245.81 166.9L244.43 175.29L236.03 176.68L244.43 178.06L245.81 186.45L247.19 178.06L255.58 176.68L247.19 175.29Z" fill="#E5E5E5"/>
<path d="M291.53 87.99L289.89 78.05L288.26 87.99L278.31 89.63L288.26 91.27L289.89 101.21L291.53 91.27L301.48 89.63L291.53 87.99Z" fill="#E5E5E5"/>
<path d="M331.48 198.15L330.49 192.15L329.5 198.15L323.51 199.13L329.5 200.12L330.49 206.11L331.48 200.12L337.47 199.13L331.48 198.15Z" fill="#E5E5E5"/>
<path opacity="0.6" d="M247.19 175.29L245.81 166.9L244.43 175.29L236.03 176.68L244.43 178.06L245.81 186.45L247.19 178.06L255.58 176.68L247.19 175.29Z" fill="white"/>
<path d="M138.27 268.58L136.89 260.19L135.51 268.58L127.11 269.96L135.51 271.35L136.89 279.74L138.27 271.35L146.66 269.96L138.27 268.58Z" fill="#E5E5E5"/>
<path opacity="0.6" d="M138.27 268.58L136.89 260.19L135.51 268.58L127.11 269.96L135.51 271.35L136.89 279.74L138.27 271.35L146.66 269.96L138.27 268.58Z" fill="white"/>
<path opacity="0.6" d="M291.53 87.99L289.89 78.05L288.26 87.99L278.31 89.63L288.26 91.27L289.89 101.21L291.53 91.27L301.48 89.63L291.53 87.99Z" fill="white"/>
<path d="M258.67 318.49L257.03 308.55L255.39 318.49L245.44 320.13L255.39 321.77L257.03 331.71L258.67 321.77L268.61 320.13L258.67 318.49Z" fill="#E5E5E5"/>
<path opacity="0.6" d="M258.67 318.49L257.03 308.55L255.39 318.49L245.44 320.13L255.39 321.77L257.03 331.71L258.67 321.77L268.61 320.13L258.67 318.49Z" fill="white"/>
<path opacity="0.6" d="M331.48 198.15L330.49 192.15L329.5 198.15L323.51 199.13L329.5 200.12L330.49 206.11L331.48 200.12L337.47 199.13L331.48 198.15Z" fill="white"/>
<path d="M77.29 100.46L76.3 94.47L75.31 100.46L69.32 101.45L75.31 102.44L76.3 108.43L77.29 102.44L83.28 101.45L77.29 100.46Z" fill="#E5E5E5"/>
<path opacity="0.6" d="M77.29 100.46L76.3 94.47L75.31 100.46L69.32 101.45L75.31 102.44L76.3 108.43L77.29 102.44L83.28 101.45L77.29 100.46Z" fill="white"/>
<path d="M448.16 165.68C447.895 168.988 448.063 172.316 448.66 175.58H447.37C446.299 172.384 445.699 169.049 445.59 165.68H448.16Z" fill="#221980"/>
<path d="M450.74 167.87L444 167.4C444 167.4 444.1 168.4 444.24 170.03C444.24 170.55 444.33 171.13 444.38 171.77C444.96 179.33 445.81 194.42 443.61 197.93C440.61 202.68 427.39 192.2 426.99 186.46C426.99 186.46 430.2 174.01 436.21 167.4C436.77 166.786 437.371 166.211 438.01 165.68C438.19 165.52 438.37 165.38 438.56 165.24L438.26 155.24L440.44 154.24C444.891 157.187 448.773 160.913 451.9 165.24L450.74 167.87Z" fill="#221980"/>
<path opacity="0.7" d="M443.62 197.93C443.42 198.269 443.134 198.548 442.79 198.74C438.74 201.14 427.37 191.74 427 186.46C427 186.46 427.06 186.23 427.18 185.81C428.01 182.87 431.75 170.81 438.02 165.68C438.923 165.798 439.808 166.033 440.65 166.38C442.182 167.218 443.433 168.487 444.25 170.03C444.81 176.71 446 194.12 443.62 197.93Z" fill="white"/>
<path opacity="0.2" d="M442.79 198.74C438.74 201.14 427.37 191.74 427 186.46C427 186.46 427.06 186.23 427.18 185.81C431.94 183.12 444.71 192.37 442.79 198.74Z" fill="black"/>
<path opacity="0.2" d="M444.25 170C444.25 170.52 444.34 171.1 444.39 171.74L436.22 167.37C436.78 166.756 437.381 166.181 438.02 165.65C438.2 165.49 438.38 165.35 438.57 165.21L438.27 155.21L440.45 154.21C440.45 154.21 440.35 158.26 441.45 159.15C442.55 160.04 449.86 165.78 450.75 167.86L444 167.4C444 167.4 444.11 168.39 444.25 170Z" fill="black"/>
<path d="M354.43 356.29L346.32 357.14L345.91 352.44L344.8 339.65L352.91 338.79L354.14 352.92L354.43 356.29Z" fill="#5B170D"/>
<path d="M424.91 355.26H417.05L416.66 353.49L416.61 353.27L414.17 341.92L414.11 341.69L413.17 337.34H421.04L424.91 355.26Z" fill="#5B170D"/>
<path opacity="0.2" d="M352.91 338.79L354.14 352.92L345.91 352.44L344.8 339.65L352.91 338.79Z" fill="black"/>
<path opacity="0.2" d="M424.68 354.27H424.67L416.62 353.27H416.61L414.23 342.32H414.24L422.23 342.95L424.61 353.92L424.68 354.27Z" fill="black"/>
<path d="M416 354.79H425.55C425.706 354.791 425.858 354.845 425.979 354.943C426.101 355.041 426.186 355.177 426.22 355.33L427.77 362.33C427.802 362.5 427.797 362.675 427.754 362.842C427.711 363.01 427.632 363.166 427.523 363.299C427.413 363.433 427.275 363.54 427.119 363.615C426.963 363.689 426.793 363.729 426.62 363.73C423.53 363.68 421.28 363.49 417.4 363.49C415.01 363.49 407.8 363.74 404.5 363.74C401.2 363.74 400.77 360.48 402.12 360.18C408.18 358.86 412.74 357.03 414.68 355.29C415.039 354.959 415.512 354.78 416 354.79Z" fill="black"/>
<path d="M345.46 354.54H355C355.156 354.541 355.308 354.595 355.43 354.693C355.551 354.791 355.636 354.927 355.67 355.08L357.22 362.08C357.252 362.25 357.247 362.425 357.204 362.592C357.161 362.759 357.082 362.916 356.973 363.049C356.863 363.183 356.725 363.29 356.569 363.365C356.413 363.439 356.243 363.479 356.07 363.48C352.98 363.43 350.73 363.24 346.85 363.24C344.46 363.24 337.25 363.49 333.95 363.49C330.65 363.49 330.22 360.23 331.57 359.93C337.63 358.61 342.19 356.78 344.13 355.04C344.491 354.707 344.968 354.527 345.46 354.54Z" fill="black"/>
<path d="M344.06 349.26L355.66 349.64C351.44 272.08 349.47 268.12 387.12 231.49C388 242.57 388.99 254.07 389.96 263.65C390.57 269.58 390.75 274.75 391.74 278.55C398.43 304.24 414.56 349.7 414.56 349.7L425.88 350.21C425.88 350.21 411.71 287.9 410.25 267.59C408.34 240.95 414.56 212.11 411.03 191.26L371.48 198C335.62 250.45 329.05 261.79 344.06 349.26Z" fill="#221980"/>
<path opacity="0.3" d="M344.06 349.26L355.66 349.64C351.44 272.08 349.47 268.12 387.12 231.49C388 242.57 388.99 254.07 389.96 263.65C390.57 269.58 390.75 274.75 391.74 278.55C398.43 304.24 414.56 349.7 414.56 349.7L425.88 350.21C425.88 350.21 411.71 287.9 410.25 267.59C408.34 240.95 414.56 212.11 411.03 191.26L371.48 198C335.62 250.45 329.05 261.79 344.06 349.26Z" fill="white"/>
<path d="M270.27 126.79C267.11 131.34 262.1 147.6 262.1 152.92C262.1 158.24 262 156.41 265 158C268 159.59 277.71 164.92 282.46 168.71C287.21 172.5 288.52 170.02 290.37 173.9C292.22 177.78 303.46 145.81 305.88 142.28C308.3 138.75 305.4 140.37 303.03 138.28C300.66 136.19 290.18 129.41 284.47 126.85C278.76 124.29 276.13 128.36 274.54 126.85C272.95 125.34 270.27 126.79 270.27 126.79Z" fill="#F0F0F0"/>
<path d="M322.93 154.75C322.93 154.75 314.57 174.91 311.45 175.65C308.64 176.31 290.52 147.89 290.52 147.89C290.52 147.89 288.15 139.06 287.88 136.49C287.61 133.92 276.28 139.49 276.01 141.03C275.74 142.57 279.33 152.9 283.87 153.69C283.87 153.69 299.39 188.77 309.19 191.14C318.99 193.51 339.45 159.76 339.45 159.76L322.93 154.75Z" fill="#5B170D"/>
<path d="M377.43 124.13C377.43 124.13 404.56 126.6 409.78 129.02C415 131.44 437.57 162.44 437.57 162.44C437.57 162.44 446.97 165.65 446.57 169.03C446.17 172.41 445.83 178.57 443.14 177.61C440.45 176.65 433.45 170.85 433.45 170.85L433.16 167.85C433.16 167.85 406.66 139.64 405.59 138.85C404.52 138.06 377.89 137.21 377.89 137.21L377.43 124.13Z" fill="#5B170D"/>
<path d="M356.49 121.38C373.49 118.43 383.81 121.38 393.43 123.7L390.84 140.57L370.84 143.94L356.49 121.38Z" fill="black"/>
<path d="M324.58 126.87C324.89 127.1 325.21 127.32 325.58 127.52C327.472 128.66 329.665 129.2 331.87 129.07C332.428 129.042 332.984 128.969 333.53 128.85C335.643 128.442 337.564 127.351 338.997 125.745C340.43 124.139 341.295 122.106 341.46 119.96C342 114.39 339.01 110.89 334.46 104.59C333.414 103.102 332.006 101.906 330.368 101.116C328.73 100.326 326.917 99.9672 325.102 100.074C323.286 100.182 321.529 100.751 319.995 101.729C318.462 102.706 317.203 104.059 316.34 105.66C312.34 112.89 318.84 122.52 324.58 126.87Z" fill="#5B170D"/>
<path opacity="0.2" d="M331.83 129.07C332.388 129.042 332.944 128.969 333.49 128.85C334.937 128.563 336.302 127.958 337.485 127.077C338.668 126.197 339.64 125.064 340.33 123.76C339.467 123.254 338.543 122.861 337.58 122.59C335.083 124.156 333.088 126.405 331.83 129.07Z" fill="black"/>
<path d="M350.33 127C349.57 132.12 341.48 137.06 341.48 137.06C341.48 137.06 335.93 139.52 335.73 137.33C338.04 134.7 338.32 132.4 337.55 130.33C337.035 129.103 336.28 127.991 335.33 127.06C334.819 126.523 334.279 126.015 333.71 125.54L337.26 111.54C339.67 116.92 344.83 126.17 350.33 127Z" fill="#5B170D"/>
<path d="M316.53 111.87C316.92 111.78 317.37 111.99 317.8 112.93C318.94 115.46 322.8 118.51 325.74 119.1C328.68 119.69 334 124.42 334 124.42C334 124.42 337.52 119.72 342.1 118.57C342.1 118.57 344.59 108.7 338.95 101.57L316.53 111.87Z" fill="black"/>
<path d="M327.15 116.35C327.496 117.011 327.692 117.74 327.723 118.485C327.754 119.23 327.62 119.973 327.33 120.66C326.53 122.18 324.33 121.11 323.01 119.16C321.87 117.42 320.85 114.48 322.41 113.7C323.97 112.92 326.25 114.38 327.15 116.35Z" fill="#5B170D"/>
<path d="M339.45 104.47C339.45 104.47 341.79 99.63 333.71 95.18C325.63 90.73 316.03 97.85 313.16 102.69C311.824 103.219 310.663 104.11 309.808 105.264C308.953 106.418 308.437 107.788 308.32 109.22C307.63 114.46 314.85 116.14 314.85 116.14C314.85 116.14 312.27 114.53 311.78 113.01C311.78 113.01 312.78 115.43 317.62 114.57C317.243 114.459 316.899 114.258 316.617 113.984C316.335 113.711 316.123 113.373 316 113C316 113 319.64 115.78 324.64 111.55C329.64 107.32 339.45 104.47 339.45 104.47Z" fill="black"/>
<path opacity="0.2" d="M387.12 231.44C388 242.52 389 254 390 263.62C391.42 249.79 393.16 239.93 393.16 239.93C393.16 239.93 394.79 238.59 399.27 231.44C403.75 224.29 399.27 210.94 399.27 210.94C399.37 223.34 387.12 231.44 387.12 231.44Z" fill="black"/>
<path d="M342.76 348.01L343.32 351.26H356.95V348.26L342.76 348.01Z" fill="#221980"/>
<path d="M413.22 349.26L414.52 352.26H426.94L426.7 349.26H413.22Z" fill="#221980"/>
<path d="M326 142.35C326 142.35 340.37 121.35 363.15 120.56C363.15 120.56 400.73 152.11 413.79 195.99L363.42 209.92C363.42 209.92 346.36 169.21 326 142.35Z" fill="black"/>
<path d="M326 142.35C319.9 152.97 315.11 167.21 315.11 167.21L330.53 177.71L342.69 164.32C342.69 164.32 342.85 154.32 336.12 147.69C329.39 141.06 326 142.35 326 142.35Z" fill="black"/>
<path opacity="0.8" d="M413.75 196L363.38 209.93C356.796 194.611 349.323 179.689 341 165.24C341 164.68 339.79 141.76 337.92 132.05C337.92 132.05 344.52 126.23 351.44 124.9C351.44 124.9 367.86 124.9 383.89 142.27C394.83 155.6 407.29 174.29 413.75 196Z" fill="white"/>
<path opacity="0.7" d="M342.76 348.01L343.32 351.26H356.95V348.26L342.76 348.01Z" fill="white"/>
<path opacity="0.7" d="M413.22 349.26L414.52 352.26H426.94L426.7 349.26H413.22Z" fill="white"/>
</svg>
